<svg xmlns="http://www.w3.org/2000/svg" viewBox="0 0 1675.52 249.56"><defs><style>.cls-1{fill:#f0ce00;}.cls-2{fill:#005ca3;}.cls-3{fill:none;stroke:#005ca3;stroke-miterlimit:10;stroke-width:3px;}</style></defs><title>iconCDT-inline</title><g id="Layer_2" data-name="Layer 2"><g id="Capa_1" data-name="Capa 1"><path class="cls-1" d="M986.73,128.35a25,25,0,0,1-10.3-7.25,15.82,15.82,0,0,1-2.57-4.18V98.19a22.64,22.64,0,0,1,6.87-9.07q8.57-7,23.71-7,15.75,0,25.27,8t11.85,21.22H1021a17.08,17.08,0,0,0-5.61-10Q1011,97.54,1004,97.54c-3.74,0-6.66.89-8.74,2.65a9,9,0,0,0-3.12,7.18,7.27,7.27,0,0,0,2.5,5.77,17.81,17.81,0,0,0,6.24,3.43q3.75,1.26,10.76,3a111.65,111.65,0,0,1,16,4.6,26.43,26.43,0,0,1,10.61,7.64q4.44,5.24,4.45,14.12a21.8,21.8,0,0,1-8.66,17.94q-8.65,6.87-23.32,6.87-16.86,0-27-7.57a29.87,29.87,0,0,1-9.83-12.61v-9h18.56A14.27,14.27,0,0,0,998,151.6q4.83,3.66,12.64,3.66,5.61,0,8.58-2.73a9.21,9.21,0,0,0,3-7.1,7.86,7.86,0,0,0-2.57-6.08,17.53,17.53,0,0,0-6.4-3.59q-3.82-1.24-10.84-3A122.21,122.21,0,0,1,986.73,128.35Z"/><path class="cls-1" d="M972.14,107.37a24.1,24.1,0,0,0,1.72,9.55v24.61h-2.5a38.11,38.11,0,0,0,2.5,9v19.08h-22V145.54a48.63,48.63,0,0,0,3.58-19.14,48.94,48.94,0,0,0-3.58-19.18v-53h22v44A23.79,23.79,0,0,0,972.14,107.37Z"/><path class="cls-1" d="M973.86,116.92a24.1,24.1,0,0,1-1.72-9.55,23.79,23.79,0,0,1,1.72-9.18Z"/><path class="cls-1" d="M971.36,141.53h2.5v9A38.11,38.11,0,0,1,971.36,141.53Z"/><path class="cls-1" d="M951.87,107.22a48.94,48.94,0,0,1,3.58,19.18,48.63,48.63,0,0,1-3.58,19.14Z"/><path class="cls-1" d="M951.87,107.22v38.32a38.64,38.64,0,0,1-2.19,4.42,39.38,39.38,0,0,1-15.83,15.36,50.5,50.5,0,0,1-45.4,0A39.32,39.32,0,0,1,872.62,150c-.65-1.13-1.25-2.3-1.79-3.5a48.21,48.21,0,0,0,4-20.06,48.5,48.5,0,0,0-4-20.1c.54-1.21,1.14-2.39,1.79-3.53A38.77,38.77,0,0,1,888.45,87.4a51.26,51.26,0,0,1,45.4,0,39.85,39.85,0,0,1,18,19.82ZM933.15,126.4q0-12.32-6.4-18.8a22,22,0,0,0-31.2,0q-6.4,6.48-6.4,18.8t6.4,18.8a22,22,0,0,0,31.2,0Q933.14,138.73,933.15,126.4Z"/><path class="cls-1" d="M870.83,106.3a48.5,48.5,0,0,1,4,20.1,48.21,48.21,0,0,1-4,20.06,48.05,48.05,0,0,1-4-20.06A48.34,48.34,0,0,1,870.83,106.3Z"/><path class="cls-1" d="M869,102.77a37.76,37.76,0,0,1,1.8,3.53,48.34,48.34,0,0,0-4,20.1,48.05,48.05,0,0,0,4,20.06A37.24,37.24,0,0,1,869,150a39.44,39.44,0,0,1-15.83,15.36,50.5,50.5,0,0,1-45.4,0A39,39,0,0,1,794,153.13v-2.39h-1.56c-.16-.25-.32-.52-.47-.78q-5.78-10-5.78-23.56T792,102.77c.2-.35.4-.69.61-1h1.26v-2a38.49,38.49,0,0,1,14-12.4,51.26,51.26,0,0,1,45.4,0A38.89,38.89,0,0,1,869,102.77ZM852.49,126.4q0-12.32-6.39-18.8a22,22,0,0,0-31.2,0q-6.4,6.48-6.4,18.8t6.4,18.8a22,22,0,0,0,31.2,0Q852.49,138.73,852.49,126.4Z"/><path class="cls-1" d="M794,153.13v16.48H782.45q-14.51,0-22.23-7t-7.72-23.4V101.75H745a39,39,0,0,0-4.54-6.09V83.19h12V61.82h22V83.19h19.34V99.8q-.66.95-1.26,2H774.5v37.76q0,6.24,2.49,8.73t8.43,2.5h7C792.93,151.56,793.45,152.36,794,153.13Z"/><path class="cls-1" d="M794,150.74v2.39c-.55-.77-1.07-1.57-1.56-2.39Z"/><path class="cls-1" d="M793.84,99.8v2h-1.26Q793.18,100.75,793.84,99.8Z"/><path class="cls-2" d="M745.64,102.77q5.76,10.07,5.77,23.63T745.64,150a39.41,39.41,0,0,1-15.84,15.36,50.47,50.47,0,0,1-45.39,0A39.41,39.41,0,0,1,668.57,150c-.5-.86-1-1.74-1.4-2.63a37.69,37.69,0,0,0,2.5-8.14h-5.4a50.6,50.6,0,0,1-1.32-8.58h7a41.53,41.53,0,0,0,.78-7.48,43.57,43.57,0,0,0-3.55-17.79c.43-.87.88-1.73,1.36-2.57A38.86,38.86,0,0,1,684.41,87.4a51.24,51.24,0,0,1,45.39,0,38.42,38.42,0,0,1,10.69,8.26v6.09H745C745.24,102.08,745.44,102.42,745.64,102.77ZM729.1,126.4q0-12.32-6.4-18.8a22,22,0,0,0-31.2,0q-6.39,6.48-6.39,18.8t6.39,18.8a22,22,0,0,0,31.2,0Q729.11,138.73,729.1,126.4Z"/><path class="cls-1" d="M745,101.75h-4.54V95.66A39,39,0,0,1,745,101.75Z"/><path class="cls-2" d="M670.76,123.13a41.53,41.53,0,0,1-.78,7.48h-7c-.1-1.37-.15-2.78-.15-4.21a48.1,48.1,0,0,1,4.41-21.06A43.57,43.57,0,0,1,670.76,123.13Z"/><path class="cls-2" d="M664.27,139.19h5.4a37.69,37.69,0,0,1-2.5,8.14A42.69,42.69,0,0,1,664.27,139.19Z"/><path class="cls-2" d="M667.17,147.33a36.9,36.9,0,0,1-4.84,8.09,38.25,38.25,0,0,1-14.43,11.23,49.38,49.38,0,0,1-42-1.33A37.76,37.76,0,0,1,590.57,150a41.1,41.1,0,0,1-1.87-3.9V106.7a41.63,41.63,0,0,1,1.87-3.93A37.25,37.25,0,0,1,605.86,87.4a46.62,46.62,0,0,1,22.47-5.3q12.78,0,22.38,5.3A37.35,37.35,0,0,1,665.53,102c.61,1.09,1.17,2.21,1.68,3.35a48.1,48.1,0,0,0-4.41,21.06c0,1.43.05,2.84.15,4.21H606.64q.47,11.55,6.24,17a20.07,20.07,0,0,0,14.35,5.46q7.65,0,12.72-3.75a16.52,16.52,0,0,0,6.47-10.14h17.85A42.69,42.69,0,0,0,667.17,147.33Zm-18.56-26.39q.46-10.6-5.54-16.07a21.17,21.17,0,0,0-14.74-5.46,21.67,21.67,0,0,0-15,5.46q-6.09,5.47-6.71,16.07Z"/><path class="cls-2" d="M588.7,146.06v23.87a47.85,47.85,0,0,1-4.76,21.6,35.11,35.11,0,0,1-14.19,15.06q-9.43,5.46-22.86,5.46-18.72,0-30.26-8.9t-14-24.18h21.68a17.88,17.88,0,0,0,7.26,10.22q5.38,3.66,13.8,3.67,9.67,0,15.6-5.7t5.93-17.23V151.52a28.41,28.41,0,0,1-11.07,14q-7.81,5.24-18.72,5.23a37.1,37.1,0,0,1-19.66-5.31A35.82,35.82,0,0,1,503.76,150c-.41-.84-.8-1.7-1.15-2.58h4.82v-19h-8.55c0-.67,0-1.35,0-2q0-13.58,4.91-23.63A35.84,35.84,0,0,1,517.41,87.4a37.18,37.18,0,0,1,19.66-5.3q10.9,0,18.72,5.15a28,28,0,0,1,11.07,13.88V83.19H588.7V106.7a51.28,51.28,0,0,0-3.59,19.7A51,51,0,0,0,588.7,146.06ZM566.86,126.4q0-11.54-6.47-18.33a21.79,21.79,0,0,0-16.46-6.78q-10.29,0-16.54,6.7t-6.24,18.41q0,11.7,6.24,18.33t16.54,6.63a21.79,21.79,0,0,0,16.46-6.78Q566.86,137.79,566.86,126.4Z"/><path class="cls-2" d="M588.7,106.7v39.36a51,51,0,0,1-3.59-19.66A51.28,51.28,0,0,1,588.7,106.7Z"/><path class="cls-2" d="M507.43,128.43v19h-4.82a53.53,53.53,0,0,1-3.73-19Z"/><path class="cls-2" d="M502.61,147.46h-9.53v22.15H470.92V147.46H419.83a47.67,47.67,0,0,0,4.45-21.06,59.26,59.26,0,0,0-.38-6.76l45.62-61.41h23.56v70.2h5.8A53.53,53.53,0,0,0,502.61,147.46Zm-30-19V84l-33.38,44.46Z"/><polygon class="cls-1" points="472.64 83.97 472.64 128.43 439.26 128.43 472.64 83.97"/><path class="cls-2" d="M423.9,119.64a59.26,59.26,0,0,1,.38,6.76,47.67,47.67,0,0,1-4.45,21.06h-3V129.21Z"/><path class="cls-2" d="M416.79,147.46h3c-.41.85-.85,1.68-1.32,2.5a39.41,39.41,0,0,1-15.84,15.36,50.47,50.47,0,0,1-45.39,0A39.41,39.41,0,0,1,341.44,150c-.5-.86-1-1.74-1.39-2.64a38.55,38.55,0,0,0,2.49-8.13h-5.4a50.6,50.6,0,0,1-1.32-8.58h7a41.53,41.53,0,0,0,.78-7.48,43.36,43.36,0,0,0-3.55-17.78c.43-.88.88-1.74,1.36-2.58A38.86,38.86,0,0,1,357.28,87.4a51.24,51.24,0,0,1,45.39,0,38.86,38.86,0,0,1,15.84,15.37,43.94,43.94,0,0,1,5.39,16.87l-7.11,9.57ZM402,126.4q0-12.32-6.39-18.8a22,22,0,0,0-31.2,0q-6.4,6.48-6.4,18.8t6.4,18.8a22,22,0,0,0,31.2,0Q402,138.73,402,126.4Z"/><path class="cls-2" d="M343.63,123.13a41.53,41.53,0,0,1-.78,7.48h-7c-.1-1.37-.15-2.78-.15-4.21a48.05,48.05,0,0,1,4.41-21.05A43.36,43.36,0,0,1,343.63,123.13Z"/><path class="cls-2" d="M337.14,139.19h5.4a38.55,38.55,0,0,1-2.49,8.13A41.71,41.71,0,0,1,337.14,139.19Z"/><path class="cls-2" d="M315.94,104.87a21.17,21.17,0,0,0-14.74-5.46,21.67,21.67,0,0,0-15,5.46q-6.08,5.47-6.71,16.07h42Q321.95,110.34,315.94,104.87Zm24.11,42.45a37,37,0,0,1-4.84,8.1,38.4,38.4,0,0,1-14.43,11.23,49.4,49.4,0,0,1-42-1.33A37.68,37.68,0,0,1,263.45,150Q258,140,258,126.4t5.46-23.63A37.17,37.17,0,0,1,278.73,87.4a46.64,46.64,0,0,1,22.47-5.3q12.78,0,22.38,5.3A37.35,37.35,0,0,1,338.4,102c.61,1.1,1.18,2.22,1.68,3.36a48.05,48.05,0,0,0-4.41,21.05c0,1.43.05,2.84.15,4.21H279.51q.48,11.55,6.24,17a20.08,20.08,0,0,0,14.36,5.46q7.63,0,12.71-3.75a16.52,16.52,0,0,0,6.47-10.14h17.85A41.71,41.71,0,0,0,340.05,147.32Z"/><path class="cls-2" d="M43,232.57l58.71-58a4.48,4.48,0,0,0,.86-2.54l.11-24.88,32.69,33.1a4.08,4.08,0,0,0,2.93,1.26,4.23,4.23,0,0,0,2.94-1.21l33.64-33.2L179,178.92l-22-3.11a4.17,4.17,0,1,0-1.16,8.26l27.4,3.89a2.55,2.55,0,0,0,.55,0,4.18,4.18,0,0,0,2.94-1.22A4.13,4.13,0,0,0,188,183.3l-5.85-45.56a4.1,4.1,0,0,0-1.16-2.38l-32.76-33.23,25.15.16a3.07,3.07,0,0,0,2.55-.83l58.55-57.78a5.86,5.86,0,0,0,.88-2.54,3.11,3.11,0,0,0-.84-2.55L197.37,1a3.87,3.87,0,0,0-5.09,0l-58.71,58a4.48,4.48,0,0,0-.86,2.54l-.11,24.89-1.23-1.25v0L98.56,51.89a32,32,0,0,0-45.25-.3A32,32,0,0,0,53,96.76l34.18,34.63L62,131.22a3.08,3.08,0,0,0-2.56.83L.87,189.83A6,6,0,0,0,0,192.38a3.14,3.14,0,0,0,.84,2.55L38,232.54A3.86,3.86,0,0,0,43,232.57ZM141,63.28l53.75-53L225.11,41,171.64,93.92l-30.79-.18ZM52.11,74.18A23.67,23.67,0,0,1,91,56.19L57.42,89.29A23.58,23.58,0,0,1,52.11,74.18Zm11.57,65.41,30.79.18-.18,30.46-53.76,53L10.2,192.52Z"/><path class="cls-2" d="M177.33,212.52a29.8,29.8,0,0,0,35.26-34.8,3.92,3.92,0,1,1,7.69-1.39A39.58,39.58,0,0,1,210,210.81a37.43,37.43,0,0,1-26.47,10.87,42.12,42.12,0,0,1-7.67-1,4.14,4.14,0,1,1,1.5-8.15Z"/><path class="cls-2" d="M181,239.9c16.29,3.47,33.59-1.23,45.19-13.14a49.31,49.31,0,0,0,13.74-45,4.14,4.14,0,1,1,8.16-1.38A58.1,58.1,0,0,1,231.9,233,57,57,0,0,1,191,249.56a50.46,50.46,0,0,1-11.51-1.51,4,4,0,0,1-3.33-4.83C176.66,240.83,179.06,239.89,181,239.9Z"/><rect class="cls-1" x="117.62" y="53.56" width="19.69" height="107.05" transform="translate(-38.47 120.41) rotate(-44.62)"/><rect class="cls-1" x="98.01" y="73.1" width="19.25" height="107.04" transform="translate(-57.92 112.11) rotate(-44.62)"/><path class="cls-2" d="M1145.36,107.74a20.08,20.08,0,0,1,7.19,10.76h-6a14.51,14.51,0,0,0-5.39-6.91,15.61,15.61,0,0,0-9.12-2.58,14.06,14.06,0,0,0-13,8,20,20,0,0,0-1.95,9.09,19.65,19.65,0,0,0,1.95,9,14.5,14.5,0,0,0,5.34,5.92,14.34,14.34,0,0,0,7.65,2.07,15.61,15.61,0,0,0,9.12-2.57,14.51,14.51,0,0,0,5.39-6.91h6a20,20,0,0,1-7.19,10.75q-5.2,3.94-13.2,3.94a20.75,20.75,0,0,1-10.86-2.82,19.37,19.37,0,0,1-7.34-7.87,24.46,24.46,0,0,1-2.64-11.5,24.82,24.82,0,0,1,2.64-11.6,19.33,19.33,0,0,1,7.34-7.9,20.75,20.75,0,0,1,10.86-2.82Q1140.16,103.81,1145.36,107.74Z"/><path class="cls-2" d="M1190.37,113.91v34h-5.64v-8a11.48,11.48,0,0,1-4.62,6.36,13.68,13.68,0,0,1-7.72,2.2,12.64,12.64,0,0,1-9.55-3.81c-2.44-2.55-3.65-6.19-3.65-10.95V113.91h5.64v19.28q0,5.09,2.6,7.85a9.26,9.26,0,0,0,7.07,2.76,9.68,9.68,0,0,0,7.44-3q2.79-3,2.79-8.77V113.91Z"/><path class="cls-2" d="M1210,115.31a14.6,14.6,0,0,1,7.69-2v6.14h-1.73a12.09,12.09,0,0,0-7.82,2.45q-3,2.44-3,8.09V148h-5.65v-34h5.65v6.88A12.47,12.47,0,0,1,1210,115.31Z"/><path class="cls-2" d="M1233.77,115.31a14.58,14.58,0,0,1,7.69-2v6.14h-1.74a12.08,12.08,0,0,0-7.81,2.45c-2,1.63-3,4.33-3,8.09V148h-5.64v-34h5.64v6.88A12.55,12.55,0,0,1,1233.77,115.31Z"/><path class="cls-2" d="M1247.1,101.42a4.53,4.53,0,0,1,5.58,0,3.53,3.53,0,0,1,0,5,4.53,4.53,0,0,1-5.58,0,3.53,3.53,0,0,1,0-5Zm5.58,12.49v34H1247v-34Z"/><path class="cls-2" d="M1287.59,117a14.78,14.78,0,0,1,5.27,9.3h-6a8.74,8.74,0,0,0-3.37-5.74,11.12,11.12,0,0,0-6.86-2.07,10.93,10.93,0,0,0-5.42,1.36,10,10,0,0,0-3.94,4.19,17.07,17.07,0,0,0,0,14,9.93,9.93,0,0,0,3.94,4.18,11.85,11.85,0,0,0,12.28-.74,8.85,8.85,0,0,0,3.37-5.77h6a14.65,14.65,0,0,1-5.27,9.33,16.65,16.65,0,0,1-10.79,3.44,17.56,17.56,0,0,1-8.68-2.1,14.87,14.87,0,0,1-5.92-6.05,19.06,19.06,0,0,1-2.14-9.27,19.29,19.29,0,0,1,2.14-9.3,14.8,14.8,0,0,1,5.92-6.07,17.46,17.46,0,0,1,8.68-2.11A16.61,16.61,0,0,1,1287.59,117Z"/><path class="cls-2" d="M1330.49,113.91v34h-5.64v-8a11.48,11.48,0,0,1-4.62,6.36,13.7,13.7,0,0,1-7.72,2.2,12.64,12.64,0,0,1-9.55-3.81c-2.44-2.55-3.66-6.19-3.66-10.95V113.91H1305v19.28c0,3.39.86,6,2.6,7.85a9.26,9.26,0,0,0,7.07,2.76,9.68,9.68,0,0,0,7.44-3q2.79-3,2.79-8.77V113.91Z"/><path class="cls-2" d="M1345.18,102.07V148h-5.64V102.07Z"/><path class="cls-2" d="M1384.49,113.91v34h-5.64v-8a11.48,11.48,0,0,1-4.62,6.36,13.7,13.7,0,0,1-7.72,2.2,12.64,12.64,0,0,1-9.55-3.81c-2.44-2.55-3.66-6.19-3.66-10.95V113.91H1359v19.28c0,3.39.86,6,2.6,7.85a9.26,9.26,0,0,0,7.07,2.76,9.68,9.68,0,0,0,7.44-3q2.79-3,2.79-8.77V113.91Z"/><path class="cls-2" d="M1445,117.17q3.63,3.81,3.63,11V148H1443V128.67q0-5-2.45-7.69a8.69,8.69,0,0,0-6.73-2.67,9.25,9.25,0,0,0-7.16,3c-1.8,2-2.7,4.85-2.7,8.65v18h-5.64V128.67q0-5-2.48-7.69a8.7,8.7,0,0,0-6.7-2.67,9.34,9.34,0,0,0-7.22,3c-1.8,2-2.7,4.85-2.7,8.65v18h-5.64v-34h5.64v7.75a11.12,11.12,0,0,1,4.44-6.17,13.84,13.84,0,0,1,14.88.06,12,12,0,0,1,4.55,6.48,12.34,12.34,0,0,1,4.78-6.41,13.18,13.18,0,0,1,7.56-2.27A12.59,12.59,0,0,1,1445,117.17Z"/><path class="cls-2" d="M1506.82,137.63a18.34,18.34,0,0,1-7.85,7.62,26.56,26.56,0,0,1-12.43,2.7h-13.89V104.24h13.89a27.19,27.19,0,0,1,12.43,2.63,18,18,0,0,1,7.85,7.57,26.6,26.6,0,0,1,0,23.19Zm-7.63.83q4.53-4.4,4.52-12.4t-4.49-12.43q-4.5-4.42-13.11-4.43h-7.82v33.67h7.82Q1494.66,142.87,1499.19,138.46Z"/><path class="cls-2" d="M1548.17,132.14H1521q.18,5.84,3.32,8.74a10.78,10.78,0,0,0,7.65,2.92,11.12,11.12,0,0,0,6.86-2.08,8.6,8.6,0,0,0,3.37-5.55h6a14.22,14.22,0,0,1-8.31,10.66,18.28,18.28,0,0,1-7.69,1.55,17.59,17.59,0,0,1-8.68-2.1,14.94,14.94,0,0,1-5.92-6.05,19.17,19.17,0,0,1-2.14-9.27,19.41,19.41,0,0,1,2.14-9.3,14.86,14.86,0,0,1,5.92-6.07,17.49,17.49,0,0,1,8.68-2.11,17.08,17.08,0,0,1,8.65,2.11,14.43,14.43,0,0,1,5.64,5.64,15.89,15.89,0,0,1,2,7.81A17.27,17.27,0,0,1,1548.17,132.14Zm-6.7-9a9,9,0,0,0-3.9-3.78,11.9,11.9,0,0,0-5.4-1.24,11.17,11.17,0,0,0-7.81,2.88c-2.11,1.92-3.24,4.74-3.41,8.46h21.76A11.51,11.51,0,0,0,1541.47,123.09Z"/><path class="cls-2" d="M1575.73,116.49a12.64,12.64,0,0,1,4.24,8.09h-5.39a7.88,7.88,0,0,0-2.51-5,8.2,8.2,0,0,0-5.74-2,7.09,7.09,0,0,0-4.74,1.46,4.89,4.89,0,0,0-1.7,3.94,4.06,4.06,0,0,0,1.14,3,7.35,7.35,0,0,0,2.85,1.74,47.15,47.15,0,0,0,4.69,1.27,46,46,0,0,1,6.1,1.77,9.62,9.62,0,0,1,4,2.88,8.07,8.07,0,0,1,1.64,5.33,8.38,8.38,0,0,1-3.13,6.76,12.59,12.59,0,0,1-8.34,2.6,16,16,0,0,1-9.92-2.91,11.6,11.6,0,0,1-4.52-8.12h5.45a7.11,7.11,0,0,0,2.7,5,9.73,9.73,0,0,0,6.29,1.92,6.49,6.49,0,0,0,4.56-1.49,5,5,0,0,0,1.64-3.9,4.28,4.28,0,0,0-1.17-3.16,7.67,7.67,0,0,0-2.92-1.8,42.77,42.77,0,0,0-4.77-1.3,46.74,46.74,0,0,1-6.05-1.74,9.24,9.24,0,0,1-3.84-2.76,7.68,7.68,0,0,1-1.58-5.11,8.56,8.56,0,0,1,3.16-6.92q3.17-2.62,8.62-2.63A13.73,13.73,0,0,1,1575.73,116.49Z"/><path class="cls-2" d="M1587.91,101.42a4.53,4.53,0,0,1,5.58,0,3.53,3.53,0,0,1,0,5,4.53,4.53,0,0,1-5.58,0,3.53,3.53,0,0,1,0-5Zm5.58,12.49v34h-5.64v-34Z"/><path class="cls-2" d="M1624.89,116a12.88,12.88,0,0,1,4.81,6.63v-8.68h5.64v34.6a17.31,17.31,0,0,1-2,8.37,14.3,14.3,0,0,1-5.58,5.7,16.59,16.59,0,0,1-8.37,2q-6.89,0-11.23-3.32a14.62,14.62,0,0,1-5.51-9h5.58a9.71,9.71,0,0,0,3.75,5.37,12,12,0,0,0,7.1,1.95,10.38,10.38,0,0,0,7.59-2.95q3-2.94,3-8.21v-9.24a12.88,12.88,0,0,1-4.81,6.63,13.92,13.92,0,0,1-8.4,2.48,15.48,15.48,0,0,1-8.06-2.1,14.67,14.67,0,0,1-5.55-6.05,20.11,20.11,0,0,1-2-9.27,20.36,20.36,0,0,1,2-9.3,14.61,14.61,0,0,1,5.55-6.07,15.39,15.39,0,0,1,8.06-2.11A14,14,0,0,1,1624.89,116Zm-15.13,5.86q-3.12,3.32-3.13,9.14t3.13,9.15a10.94,10.94,0,0,0,8.34,3.31,11.53,11.53,0,0,0,6-1.55,10.8,10.8,0,0,0,4.12-4.37,13.84,13.84,0,0,0,1.49-6.54,14,14,0,0,0-1.49-6.57,10.55,10.55,0,0,0-4.12-4.37,11.8,11.8,0,0,0-6-1.52A10.94,10.94,0,0,0,1609.76,121.82Z"/><path class="cls-2" d="M1671.86,117.17q3.66,3.81,3.66,11V148h-5.65V128.67c0-3.39-.86-6-2.6-7.81a9.31,9.31,0,0,0-7.07-2.73,9.67,9.67,0,0,0-7.44,3c-1.86,2-2.79,4.93-2.79,8.78v18h-5.64v-34H1650V122a11.57,11.57,0,0,1,4.62-6.38,13.37,13.37,0,0,1,7.66-2.24A12.68,12.68,0,0,1,1671.86,117.17Z"/><line class="cls-3" x1="1081.5" y1="56.56" x2="1081.5" y2="190.56"/></g></g></svg>